<svg id="Camada_1" data-name="Camada 1" xmlns="http://www.w3.org/2000/svg" viewBox="0 0 84.77 191"><defs><style>.cls-1{fill:#3fa9f5;}.cls-1,.cls-2,.cls-3{fill-rule:evenodd;}.cls-2{fill:#2a74b8;}.cls-3{fill:#fdfeff;}</style></defs><path class="cls-1" d="M57.61,29.22c-.58,1.66-1.48,3.19-2.15,4.88a63.6,63.6,0,0,0-4.22,16.55A59.39,59.39,0,0,0,62.62,93.79c.53.68.94,1.28,1.39,1.88l5,5.4a85.16,85.16,0,0,0,8,6,34.73,34.73,0,0,0,13.3,4.69L88,117.56l4.65,1.24,1.73.12a7.69,7.69,0,0,0,2.15.12c3.68-.42.58-5.55,0-7.41,6.84-1,7.87-2.49,12.78-4.52a81,81,0,0,0,7.7-5.76L123.64,94A57.09,57.09,0,0,0,133,75.74a60.77,60.77,0,0,0,2.2-24.8A62.9,62.9,0,0,0,131,34.31c-.68-1.7-1.69-3.46-2.2-5.07-1.28-1.4-4-8.79-12.6-15.71C106.07,5.35,99.24,6.17,96.56,5H89.8c-1.8.79-4.93.45-11.06,3.17A39.43,39.43,0,0,0,70,13.66C61.86,20.1,59.6,26.78,57.61,29.22Z" transform="translate(-50.8 -5)"/><path class="cls-2" d="M93.47,190.39a31.17,31.17,0,0,0-.79,5.41l1.25.2c.46-.51,0,.48.49-.84,1-2.9,2-17.18,2.18-20,.37-7.49.35-14,.35-14-.35-3.33-.18-7.45-.34-10.93-.54-11.52-1.26-19.81-2.2-31.29l-1.73-.12c.81,9.87,1.81,19.68,2.15,29.64.14,4.29.67,19.22,0,23.15" transform="translate(-50.8 -5)"/><path class="cls-3" d="M96.64,14.3c2.16.95,4.83,1.25,7.21,2.42a34.2,34.2,0,0,1,6.31,3.77C120.06,28,126,39.8,127.85,52.23c.54,3.52.26,6.34.56,9.64,3.93-10.95.29-25.62-4.67-33.64-4.47-7.23-13.62-16-27.1-13.93Z" transform="translate(-50.8 -5)"/><path class="cls-3" d="M125.94,66.24c-.31,4.16,3.17,3.42,3.87,1.6a2,2,0,0,0-1.07-2.54c-1.41-.54-2,.27-2.8.94Z" transform="translate(-50.8 -5)"/></svg>